HIERARCHY
ROOT Pelvis
{
	OFFSET 0.000000 0.000000 0.000000
	CHANNELS 6 Xposition Yposition Zposition Xrotation Yrotation Zrotation
	JOINT LeftUpLeg_virtual
	{
		OFFSET 0.000000 0.000000 0.000000
		CHANNELS 3 Xrotation Yrotation Zrotation
		JOINT LeftUpLeg
		{
			OFFSET 8.479700 -4.795502 -0.379100
			CHANNELS 3 Xrotation Yrotation Zrotation
			JOINT LeftLeg
			{
				OFFSET 0.024144 -32.555107 0.112900
				CHANNELS 3 Xrotation Yrotation Zrotation
				JOINT LeftFoot
				{
					OFFSET -0.024144 -32.638630 -3.012600
					CHANNELS 3 Xrotation Yrotation Zrotation
					JOINT LeftToeBase
					{
						OFFSET 0.970200 -13.225400 11.864200
						CHANNELS 3 Xrotation Yrotation Zrotation
						End Site
						{
							OFFSET 0 0 0
						}
					}
				}
			}
		}
	}
	JOINT RightUpLeg_virtual
	{
		OFFSET 0.000000 0.000000 0.000000
		CHANNELS 3 Xrotation Yrotation Zrotation
		JOINT RightUpLeg
		{
			OFFSET -8.479700 -4.795502 -0.379100
			CHANNELS 3 Xrotation Yrotation Zrotation
			JOINT RightLeg
			{
				OFFSET -0.023144 -32.555092 0.112900
				CHANNELS 3 Xrotation Yrotation Zrotation
				JOINT RightFoot
				{
					OFFSET 0.023144 -32.638641 -3.012700
					CHANNELS 3 Xrotation Yrotation Zrotation
					JOINT RightToeBase
					{
						OFFSET -0.970200 -13.225400 11.864200
						CHANNELS 3 Xrotation Yrotation Zrotation
						End Site
						{
							OFFSET 0 0 0
						}
					}
				}
			}
		}
	}
	JOINT Hips_virtual
	{
		OFFSET 0.000000 0.000000 0.000000
		CHANNELS 3 Xrotation Yrotation Zrotation
		JOINT Hips
		{
			OFFSET -0.000000 -0.000000 -0.000000
			CHANNELS 3 Xrotation Yrotation Zrotation
			JOINT Spine
			{
				OFFSET 0.000000 7.722000 1.166200
				CHANNELS 3 Xrotation Yrotation Zrotation
				JOINT Spine1
				{
					OFFSET 0.000000 12.024101 0.248800
					CHANNELS 3 Xrotation Yrotation Zrotation
					JOINT Spine2
					{
						OFFSET 0.000000 11.502998 -0.491200
						CHANNELS 3 Xrotation Yrotation Zrotation
						JOINT Neck_virtual
						{
							OFFSET 0.000000 0.000000 0.000000
							CHANNELS 3 Xrotation Yrotation Zrotation
							JOINT Neck
							{
								OFFSET 0.000000 18.430702 -3.123100
								CHANNELS 3 Xrotation Yrotation Zrotation
								JOINT Head
								{
									OFFSET 0.000000 9.051102 1.034000
									CHANNELS 3 Xrotation Yrotation Zrotation
									End Site
									{
										OFFSET 0 0 0
									}
								}
							}
						}
						JOINT LeftShoulder_virtual
						{
							OFFSET 0.000000 0.000000 0.000000
							CHANNELS 3 Xrotation Yrotation Zrotation
							JOINT LeftShoulder
							{
								OFFSET 6.197800 13.665199 -4.064700
								CHANNELS 3 Xrotation Yrotation Zrotation
								JOINT LeftArm
								{
									OFFSET 7.778100 -0.187103 -1.709300
									CHANNELS 3 Xrotation Yrotation Zrotation
									JOINT LeftForeArm
									{
										OFFSET 22.049376 0.000000 0.000000
										CHANNELS 3 Xrotation Yrotation Zrotation
										JOINT LeftHand
										{
											OFFSET 23.009392 0.000000 0.000000
											CHANNELS 3 Xrotation Yrotation Zrotation
											End Site
											{
												OFFSET 0 0 0
											}
										}
									}
								}
							}
						}
						JOINT RightShoulder_virtual
						{
							OFFSET 0.000000 0.000000 0.000000
							CHANNELS 3 Xrotation Yrotation Zrotation
							JOINT RightShoulder
							{
								OFFSET -6.197800 13.665199 -4.064700
								CHANNELS 3 Xrotation Yrotation Zrotation
								JOINT RightArm
								{
									OFFSET -7.778100 -0.187103 -1.709300
									CHANNELS 3 Xrotation Yrotation Zrotation
									JOINT RightForeArm
									{
										OFFSET -22.049376 0.000000 0.000000
										CHANNELS 3 Xrotation Yrotation Zrotation
										JOINT RightHand
										{
											OFFSET -23.009392 0.000000 0.000000
											CHANNELS 3 Xrotation Yrotation Zrotation
											End Site
											{
												OFFSET 0 0 0
											}
										}
									}
								}
							}
						}
					}
				}
			}
		}
	}
}
MOTION
Frames: 9
Frame Time: 0.03333333
-3.140403 72.131859 64.860466 0.000000 0.000000 0.000000 31.855155 14.000474 -6.722866 -12.689119 8.265429 3.558249 26.041618 21.112422 1.146933 -19.445757 0.153123 -24.370021 0.000000 0.000000 0.000000 31.855155 14.000474 -6.722866 -73.445038 -9.157393 -2.828896 66.503284 -30.412787 -1.675512 -14.014244 -0.728587 1.485237 0.000000 0.000000 0.000000 31.855155 14.000474 -6.722866 -0.000002 -0.000000 0.000001 4.720468 -0.267004 1.729084 9.441407 0.085017 4.172058 0.000000 0.000000 0.000000 9.441405 0.085014 4.172060 -7.147127 0.629938 -0.577767 0.000000 0.000000 0.000000 9.441405 0.085014 4.172060 3.345506 -20.374548 5.851154 -45.404133 -21.632018 -43.071726 105.129561 -62.566254 117.849805 0.000000 0.000000 0.000000 9.441405 0.085014 4.172060 1.512595 10.066760 -3.702965 -39.856859 5.966737 40.669777 110.736641 51.476745 -131.206090 0.000000 0.000000 0.000000 
-3.174156 72.017708 65.031036 0.000000 0.000000 0.000000 32.063722 14.005309 -6.766747 -12.967579 8.240551 3.677204 26.433201 21.109757 1.145051 -19.432739 0.089852 -24.610153 0.000000 0.000000 0.000000 32.063722 14.005309 -6.766747 -73.774362 -9.259598 -2.861392 66.956058 -30.392221 -1.674561 -14.155579 -0.730043 1.441931 0.000000 0.000000 0.000000 32.063722 14.005309 -6.766747 0.000002 -0.000001 0.000000 4.639482 -0.268690 1.729689 9.279509 0.081827 4.174584 0.000000 0.000000 0.000000 9.279515 0.081824 4.174586 -7.203887 0.623596 -0.573730 0.000000 0.000000 0.000000 9.279515 0.081824 4.174586 3.403882 -20.465914 6.046222 -45.550771 -21.701371 -42.949240 104.319344 -62.881085 117.063186 0.000000 0.000000 0.000000 9.279515 0.081824 4.174586 1.519934 10.005078 -3.875170 -40.127269 6.220005 40.746757 110.235285 51.780491 -130.620879 0.000000 0.000000 0.000000 
-3.204996 71.905006 65.199188 0.000000 0.000000 0.000000 32.278695 14.015280 -6.813957 -13.252709 8.214826 3.794535 26.819749 21.107778 1.143405 -19.411691 0.025902 -24.849531 0.000000 0.000000 0.000000 32.278695 14.015280 -6.813957 -74.100818 -9.365011 -2.903609 67.394829 -30.364262 -1.672975 -14.302595 -0.734390 1.408051 0.000000 0.000000 0.000000 32.278695 14.015280 -6.813957 0.000002 0.000001 -0.000000 4.557616 -0.270223 1.732322 9.115786 0.078891 4.180704 0.000000 0.000000 0.000000 9.115793 0.078890 4.180704 -7.260786 0.622991 -0.571326 0.000000 0.000000 0.000000 9.115793 0.078890 4.180704 3.462212 -20.556769 6.238194 -45.726156 -21.783029 -42.867282 103.432416 -63.200396 116.209084 0.000000 0.000000 0.000000 9.115793 0.078890 4.180704 1.527258 9.940854 -4.054029 -40.408393 6.474589 40.823624 109.704060 52.094987 -130.008170 0.000000 0.000000 0.000000 
-3.233135 71.792290 65.367043 0.000000 0.000000 0.000000 32.495984 14.024632 -6.861016 -13.537504 8.188735 3.908630 27.201128 21.106256 1.142073 -19.383971 -0.038315 -25.088043 0.000000 0.000000 0.000000 32.495984 14.024632 -6.861016 -74.423749 -9.471541 -2.953829 67.828259 -30.314633 -1.669812 -14.453927 -0.740808 1.381135 0.000000 0.000000 0.000000 32.495984 14.024632 -6.861016 0.000001 0.000000 0.000000 4.475253 -0.272126 1.734744 8.951162 0.075002 4.186377 0.000000 0.000000 0.000000 8.951167 0.075007 4.186376 -7.318544 0.628105 -0.570277 0.000000 0.000000 0.000000 8.951167 0.075007 4.186376 3.520942 -20.647267 6.429783 -45.923067 -21.869197 -42.821670 102.479284 -63.518307 115.301243 0.000000 0.000000 0.000000 8.951167 0.075007 4.186376 1.534768 9.876781 -4.238350 -40.697040 6.729570 40.910425 109.140720 52.419038 -129.364124 0.000000 0.000000 0.000000 
-3.259347 71.678154 65.536316 0.000000 0.000000 0.000000 32.711951 14.026815 -6.905641 -13.816074 8.162501 4.019355 27.577825 21.104769 1.140916 -19.352544 -0.102227 -25.324808 0.000000 0.000000 0.000000 32.711951 14.026815 -6.905641 -74.742746 -9.577642 -3.007489 68.263561 -30.234905 -1.664499 -14.608082 -0.748421 1.358749 0.000000 0.000000 0.000000 32.711951 14.026815 -6.905641 0.000001 0.000001 -0.000000 4.392758 -0.274897 1.734924 8.786290 0.069153 4.187628 0.000000 0.000000 0.000000 8.786284 0.069152 4.187630 -7.375612 0.638790 -0.570446 0.000000 0.000000 0.000000 8.786284 0.069152 4.187630 3.580655 -20.737417 6.622317 -46.132638 -21.954666 -42.797760 101.473867 -63.830700 114.352967 0.000000 0.000000 0.000000 8.786284 0.069152 4.187630 1.543033 9.816508 -4.426531 -40.990188 6.984697 41.013285 108.542313 52.751928 -128.683578 0.000000 0.000000 0.000000 
-3.284732 71.561256 65.708389 0.000000 0.000000 0.000000 32.924343 14.016305 -6.947385 -14.084174 8.136179 4.128193 27.949665 21.103121 1.140023 -19.321714 -0.164886 -25.559524 0.000000 0.000000 0.000000 32.924343 14.016305 -6.947385 -75.057789 -9.683224 -3.058665 68.705064 -30.123829 -1.657093 -14.763749 -0.756362 1.338165 0.000000 0.000000 0.000000 32.924343 14.016305 -6.947385 0.000000 0.000000 0.000000 4.310316 -0.278740 1.731560 8.621639 0.060786 4.181864 0.000000 0.000000 0.000000 8.621644 0.060786 4.181865 -7.429221 0.654858 -0.572572 0.000000 0.000000 0.000000 8.621644 0.060786 4.181865 3.640687 -20.827289 6.814457 -46.346098 -22.038799 -42.773564 100.429237 -64.136200 113.371721 0.000000 0.000000 0.000000 8.621644 0.060786 4.181865 1.552216 9.763878 -4.617563 -41.285113 7.239939 41.132721 107.905425 53.093540 -127.960971 0.000000 0.000000 0.000000 
-3.310355 71.440308 65.884201 0.000000 0.000000 0.000000 33.132770 13.990448 -6.987727 -14.341253 8.109345 4.238178 28.318801 21.100153 1.139175 -19.296517 -0.224850 -25.792367 0.000000 0.000000 0.000000 33.132770 13.990448 -6.987727 -75.370250 -9.789825 -3.102292 69.155727 -29.987030 -1.648118 -14.920628 -0.763900 1.316730 0.000000 0.000000 0.000000 33.132770 13.990448 -6.987727 -0.000001 0.000000 0.000000 4.227742 -0.283611 1.724256 8.456731 0.049883 4.168280 0.000000 0.000000 0.000000 8.456742 0.049891 4.168277 -7.475458 0.675860 -0.577672 0.000000 0.000000 0.000000 8.456742 0.049891 4.168277 3.700562 -20.916841 7.003157 -46.556427 -22.125445 -42.724940 99.354554 -64.436490 112.357240 0.000000 0.000000 0.000000 8.456742 0.049891 4.168277 1.562808 9.722048 -4.810984 -41.579268 7.494223 41.263990 107.227679 53.443758 -127.192616 0.000000 0.000000 0.000000 
-3.336938 71.314201 66.064514 0.000000 0.000000 0.000000 33.338877 13.950097 -7.029452 -14.588861 8.081512 4.352494 28.686282 21.095162 1.138277 -19.281339 -0.280863 -26.024044 0.000000 0.000000 0.000000 33.338877 13.950097 -7.029452 -75.682676 -9.900217 -3.135751 69.617461 -29.834645 -1.638320 -15.079369 -0.770405 1.291349 0.000000 0.000000 0.000000 33.338877 13.950097 -7.029452 0.000001 -0.000001 0.000000 4.144307 -0.289339 1.713605 8.290173 0.036901 4.147905 0.000000 0.000000 0.000000 8.290169 0.036901 4.147904 -7.510590 0.700957 -0.586769 0.000000 0.000000 0.000000 8.290169 0.036901 4.147904 3.759544 -21.006091 7.184544 -46.759086 -22.221670 -42.632152 98.253617 -64.735276 111.302119 0.000000 0.000000 0.000000 8.290169 0.036901 4.147904 1.575182 9.692627 -5.006976 -41.870200 7.745227 41.399259 106.508713 53.802015 -126.378294 0.000000 0.000000 0.000000 
-3.364663 71.182182 66.249725 0.000000 0.000000 0.000000 33.546061 13.899371 -7.075360 -14.831220 8.052104 4.473528 29.054057 21.087079 1.137315 -19.278462 -0.331449 -26.256541 0.000000 0.000000 0.000000 33.546061 13.899371 -7.075360 -75.999508 -10.017186 -3.160094 70.092105 -29.678060 -1.628544 -15.241799 -0.775228 1.258668 0.000000 0.000000 0.000000 33.546061 13.899371 -7.075360 0.000003 0.000001 -0.000000 4.058965 -0.295598 1.700707 8.119907 0.022535 4.122998 0.000000 0.000000 0.000000 8.119893 0.022529 4.122999 -7.532406 0.728853 -0.600430 0.000000 0.000000 0.000000 8.119893 0.022529 4.122999 3.816740 -21.095073 7.355334 -46.951974 -22.334550 -42.484678 97.126499 -65.036501 110.196257 0.000000 0.000000 0.000000 8.119893 0.022529 4.122999 1.589197 9.675214 -5.205954 -42.155443 7.989155 41.531098 105.751266 54.166241 -125.522607 0.000000 0.000000 0.000000 
